<?xml version="1.0" encoding="UTF-8"?>
<svg id="Layer_2" data-name="Layer 2" xmlns="http://www.w3.org/2000/svg" viewBox="0 0 388.2 406.84">
  <defs>
    <style>
      .cls-1 {
        fill: #49511d;
      }

      .cls-2 {
        fill: #dae27c;
      }
    </style>
  </defs>
  <g id="Layer_1" data-name="Layer 1">
    <g>
      <rect class="cls-2" width="388.2" height="406.84" rx="41.58" ry="41.58" transform="translate(388.2 406.84) rotate(180)"/>
      <path class="cls-1" d="M277.86,179.16c-5.76-24.53-25.58-41.17-50.84-43.34l-38.97-.46c-9.23-.11-18.02.2-26.82,3.16-17.06,5.73-29.71,18.69-34.96,36.02-.44,1.46-.84,2.94-1.21,4.41,10.29-3.12,21.45-2.33,31.28,2.32l2.78,1.32c3.47-7.68,9.95-13.69,19.6-15.93l1.07.03,3.89-.47,37,.36c11.23.11,20.48,7.96,23.8,18.58,1.67,5.34,2.3,10.89,1.85,16.38,10.64,4.22,22.56,4.11,33.15-.41l.39-.17c.32-7.28-.33-14.59-2.02-21.79ZM244.98,209.29c-.06.22-.11.43-.18.65-3.29,11.41-13.06,19.38-24.97,19.41l-34.08.09c-1.99,0-3.96-.05-5.93-.33-.31-.04-.8.14-1.06,0-8.67-2.15-16.2-7.31-19.68-16.23-2.94-7.52-3.73-15.69-2.25-23.08l-.48-.22c-10.37-4.9-22.21-5.51-32.96-1.77-2.23,16.6.67,33.22,8.85,46.36l-16.96,10.65c-6.96,4.38-3.86,15.15,4.36,15.15h55.84c3.88.42,7.81.57,11.82.53l38.82-.29c25.81-1.41,45.99-18.6,51.67-43.64.52-2.31.96-4.63,1.29-6.96-10.94,4.54-23.26,4.41-34.09-.32Z"/>
    </g>
  </g>
</svg>