<?xml version="1.0" encoding="UTF-8"?>
<svg id="Layer_3" data-name="Layer 3" xmlns="http://www.w3.org/2000/svg" viewBox="0 0 184.26 136.86">
  <defs>
    <style>
      .cls-1 {
        fill: #dae27c;
      }
    </style>
  </defs>
  <g id="Layer_1" data-name="Layer 1">
    <path class="cls-1" d="M181.97,47.91C175.68,21.09,154,2.9,126.38.52L83.78.02c-10.09-.12-19.7.22-29.32,3.45-18.65,6.26-32.49,20.44-38.23,39.39-.48,1.6-.92,3.22-1.32,4.83,11.25-3.41,23.45-2.55,34.2,2.53l3.04,1.45c3.79-8.39,10.88-14.97,21.43-17.42l1.17.03,4.25-.51,40.45.39c12.28.12,22.39,8.7,26.02,20.31,1.82,5.84,2.51,11.91,2.02,17.91,11.63,4.61,24.67,4.49,36.25-.45l.43-.18c.35-7.96-.36-15.95-2.2-23.83ZM146.02,80.85c-.06.24-.12.47-.19.71-3.6,12.47-14.28,21.19-27.3,21.22l-37.26.1c-2.17,0-4.34-.05-6.49-.36-.34-.04-.87.15-1.16,0-9.48-2.35-17.71-7.99-21.52-17.74-3.22-8.22-4.08-17.16-2.46-25.23l-.52-.25c-11.33-5.36-24.28-6.03-36.03-1.94-2.44,18.15.74,36.32,9.67,50.69l-18.54,11.64c-7.61,4.79-4.22,16.56,4.77,16.56h61.05c4.24.46,8.54.63,12.92.58l42.44-.32c28.22-1.54,50.28-20.33,56.49-47.72.57-2.52,1.05-5.06,1.41-7.61-11.96,4.96-25.43,4.82-37.27-.35Z"/>
  </g>
</svg>