<?xml version="1.0" encoding="UTF-8"?>
<svg id="Layer_2" data-name="Layer 2" xmlns="http://www.w3.org/2000/svg" viewBox="0 0 495.21 189.92">
  <defs>
    <style>
      .cls-1 {
        fill: #c9c959;
      }

      .cls-2 {
        fill: #f9f9ed;
      }
    </style>
  </defs>
  <g id="Layer_1" data-name="Layer 1">
    <g>
      <path class="cls-1" d="M493.4,37.92c-4.98-21.23-22.14-35.63-44-37.51L415.68.02c-7.99-.1-15.59.17-23.21,2.73-14.76,4.96-25.71,16.18-30.26,31.17-.38,1.27-.73,2.55-1.05,3.82,8.91-2.7,18.56-2.02,27.07,2l2.41,1.14c3-6.64,8.61-11.85,16.96-13.79l.92.02,3.37-.41,32.02.31c9.72.1,17.72,6.89,20.6,16.08,1.44,4.62,1.99,9.43,1.6,14.18,9.21,3.65,19.53,3.55,28.69-.36l.34-.15c.28-6.3-.28-12.62-1.74-18.86ZM464.94,63.99c-.05.19-.1.37-.15.56-2.85,9.87-11.3,16.78-21.61,16.8l-29.49.08c-1.72,0-3.43-.04-5.13-.28-.27-.03-.69.12-.92,0-7.5-1.86-14.02-6.33-17.03-14.04-2.55-6.51-3.23-13.58-1.95-19.97l-.41-.19c-8.97-4.24-19.22-4.77-28.52-1.53-1.93,14.37.58,28.75,7.66,40.12l-14.67,9.22c-6.03,3.79-3.34,13.11,3.77,13.11h48.32c3.36.36,6.76.49,10.23.46l33.59-.25c22.34-1.22,39.8-16.09,44.71-37.77.45-2,.83-4.01,1.12-6.03-9.47,3.93-20.13,3.81-29.5-.28Z"/>
      <g>
        <path class="cls-2" d="M69.84,85.94c-2.9,4.62-6.96,8.29-12.17,10.99-5.21,2.7-11.42,4.06-18.64,4.06-7.68,0-14.48-1.67-20.4-5-5.92-3.33-10.51-8.01-13.76-14.05-3.25-6.03-4.88-12.97-4.88-20.81s1.63-14.91,4.88-20.99c3.25-6.07,7.84-10.78,13.76-14.11,5.92-3.33,12.72-5,20.4-5,7.21,0,13.44,1.34,18.7,4,5.25,2.67,9.31,6.25,12.17,10.76,2.42,3.81,3.98,8.03,4.69,12.65.21,1.35-.85,2.58-2.22,2.58h-8.18c-1.06,0-1.96-.75-2.18-1.78-.98-4.58-3.35-8.3-7.1-11.15-4.23-3.21-9.52-4.82-15.87-4.82-5.02,0-9.54,1.16-13.58,3.47-4.04,2.31-7.19,5.57-9.47,9.76-2.27,4.19-3.41,9.07-3.41,14.64s1.14,10.33,3.41,14.52c2.27,4.19,5.43,7.45,9.47,9.76,4.04,2.31,8.56,3.47,13.58,3.47,6.74,0,12.13-1.72,16.17-5.17,3.58-3.06,5.85-6.89,6.81-11.49.22-1.04,1.12-1.79,2.19-1.79h8.26c1.38,0,2.44,1.24,2.22,2.6-.77,4.7-2.38,9.01-4.84,12.92Z"/>
        <path class="cls-2" d="M140.68,86.7c-2.55,4.66-6.07,8.19-10.58,10.58-4.51,2.39-9.7,3.59-15.58,3.59s-11.09-1.21-15.64-3.64c-4.55-2.43-8.09-5.98-10.64-10.64-2.55-4.66-3.82-10.25-3.82-16.76s1.27-12.09,3.82-16.75c2.55-4.66,6.09-8.17,10.64-10.52,4.55-2.35,9.76-3.53,15.64-3.53s11.31,1.22,15.81,3.64c4.51,2.43,8,5.96,10.46,10.58,2.47,4.63,3.7,10.15,3.7,16.58s-1.28,12.21-3.82,16.87ZM127.34,55.78c-2.98-3.33-7.25-5-12.82-5s-9.86,1.69-12.87,5.06c-3.02,3.37-4.53,8.03-4.53,13.99s1.45,10.9,4.35,14.11c2.9,3.21,7.25,4.82,13.05,4.82s10.03-1.61,12.93-4.82c2.9-3.21,4.35-7.92,4.35-14.11s-1.49-10.72-4.47-14.05Z"/>
        <path class="cls-2" d="M166.14,40.2v16.81h1.41l.24-2.59c.39-4.55,2.31-8.23,5.76-11.05,3.45-2.82,7.8-4.23,13.05-4.23,7.68,0,13.29,2.1,16.81,6.29,3.53,4.2,5.29,9.94,5.29,17.23v37.16h-12.23v-35.27c0-4.47-1.04-7.78-3.12-9.93-2.08-2.16-5.31-3.23-9.7-3.23-5.57,0-9.88,1.63-12.93,4.88-3.06,3.25-4.59,7.86-4.59,13.82v29.75h-12.23v-59.61h12.23Z"/>
        <path class="cls-2" d="M226.69,40.2l15.29,55.38h1.53l15.99-55.38h13.17l-18.58,59.61h-22.81l-17.87-59.61h13.29Z"/>
        <path class="cls-2" d="M333.63,86.7c-2.55,4.66-6.07,8.19-10.58,10.58-4.51,2.39-9.7,3.59-15.58,3.59s-11.09-1.21-15.64-3.64c-4.55-2.43-8.09-5.98-10.64-10.64-2.55-4.66-3.82-10.25-3.82-16.76s1.27-12.09,3.82-16.75c2.55-4.66,6.09-8.17,10.64-10.52,4.55-2.35,9.76-3.53,15.64-3.53s11.31,1.22,15.81,3.64c4.51,2.43,8,5.96,10.46,10.58,2.47,4.63,3.7,10.15,3.7,16.58s-1.28,12.21-3.82,16.87ZM320.28,55.78c-2.98-3.33-7.25-5-12.82-5s-9.86,1.69-12.87,5.06c-3.02,3.37-4.53,8.03-4.53,13.99s1.45,10.9,4.35,14.11c2.9,3.21,7.25,4.82,13.05,4.82s10.03-1.61,12.93-4.82c2.9-3.21,4.35-7.92,4.35-14.11s-1.49-10.72-4.47-14.05Z"/>
        <path class="cls-2" d="M174.14,111.26h51.62v12.11h-38.92v19.4h37.74v12.23h-37.74v33.86h-12.7v-77.6Z"/>
        <path class="cls-2" d="M247.75,111.26v77.6h-12.58v-77.6h12.58Z"/>
        <path class="cls-2" d="M313.41,175.75c-2.55,4.66-6.07,8.19-10.58,10.58-4.51,2.39-9.7,3.59-15.58,3.59s-11.09-1.21-15.64-3.64c-4.55-2.43-8.09-5.98-10.64-10.64-2.55-4.66-3.82-10.25-3.82-16.76s1.27-12.09,3.82-16.75c2.55-4.66,6.09-8.17,10.64-10.52,4.55-2.35,9.76-3.53,15.64-3.53s11.31,1.22,15.81,3.64c4.51,2.43,8,5.96,10.46,10.58,2.47,4.63,3.7,10.15,3.7,16.58s-1.28,12.21-3.82,16.87ZM300.07,144.83c-2.98-3.33-7.25-5-12.82-5s-9.86,1.69-12.87,5.06c-3.02,3.37-4.53,8.03-4.53,13.99s1.45,10.9,4.35,14.11c2.9,3.21,7.25,4.82,13.05,4.82s10.03-1.61,12.93-4.82c2.9-3.21,4.35-7.92,4.35-14.11s-1.49-10.72-4.47-14.05Z"/>
        <path class="cls-2" d="M334.99,129.25l9.05,55.38h1.18l10.93-55.38h22.69l10.82,55.38h1.41l9.05-55.38h12.82l-10.58,59.61h-23.75l-11.29-55.62-10.93,55.62h-23.75l-10.7-59.61h13.05Z"/>
      </g>
    </g>
  </g>
</svg>