<?xml version="1.0" encoding="UTF-8"?>
<svg id="Layer_3" data-name="Layer 3" xmlns="http://www.w3.org/2000/svg" viewBox="0 0 813.82 116.77">
  <defs>
    <style>
      .cls-1 {
        fill: #c9c959;
      }

      .cls-2 {
        fill: #231b0b;
      }
    </style>
  </defs>
  <g id="Layer_1" data-name="Layer 1">
    <g>
      <path class="cls-1" d="M155.27,40.88C149.9,18,131.4,2.47,107.84.45L71.49.02c-8.61-.1-16.81.18-25.02,2.95-15.92,5.34-27.72,17.44-32.62,33.61-.41,1.36-.79,2.75-1.13,4.12,9.6-2.91,20.01-2.18,29.18,2.16l2.6,1.23c3.24-7.16,9.29-12.78,18.29-14.87l1,.03,3.63-.44,34.52.33c10.48.1,19.11,7.42,22.2,17.33,1.56,4.98,2.14,10.16,1.72,15.29,9.93,3.94,21.05,3.83,30.93-.38l.37-.16c.3-6.79-.31-13.61-1.88-20.33ZM124.59,68.99c-.05.2-.1.4-.17.6-3.07,10.64-12.18,18.08-23.3,18.11l-31.8.09c-1.85,0-3.7-.04-5.54-.31-.29-.03-.74.13-.99,0-8.09-2-15.11-6.82-18.36-15.14-2.75-7.01-3.48-14.64-2.1-21.53l-.45-.21c-9.67-4.57-20.72-5.14-30.75-1.65-2.08,15.49.63,30.99,8.26,43.25l-15.82,9.93c-6.5,4.08-3.6,14.13,4.07,14.13h52.09c3.62.39,7.28.53,11.03.5l36.21-.27c24.08-1.31,42.9-17.35,48.2-40.72.49-2.15.89-4.32,1.21-6.5-10.21,4.23-21.7,4.11-31.8-.3Z"/>
      <g>
        <path class="cls-2" d="M257.92,85.92c-3.13,4.99-7.5,8.94-13.12,11.85-5.62,2.92-12.32,4.37-20.09,4.37-8.28,0-15.61-1.79-21.99-5.39-6.38-3.59-11.32-8.64-14.83-15.15-3.51-6.51-5.26-13.98-5.26-22.44s1.75-16.08,5.26-22.62c3.51-6.55,8.45-11.62,14.83-15.21,6.38-3.59,13.71-5.39,21.99-5.39,7.77,0,14.49,1.44,20.15,4.31,5.66,2.87,10.03,6.74,13.12,11.6,2.93,4.63,4.7,9.8,5.3,15.54.05.47-.33.88-.8.88h-12c-.39,0-.72-.29-.78-.68-.87-5.51-3.5-9.93-7.89-13.27-4.56-3.46-10.27-5.2-17.11-5.2-5.41,0-10.29,1.25-14.64,3.74-4.35,2.49-7.75,6-10.21,10.52-2.45,4.52-3.68,9.78-3.68,15.78s1.22,11.13,3.68,15.65c2.45,4.52,5.85,8.03,10.21,10.52,4.35,2.49,9.23,3.74,14.64,3.74,7.27,0,13.08-1.86,17.43-5.58,4.18-3.57,6.71-8.12,7.57-13.64.06-.39.39-.68.78-.68h12.11c.47,0,.85.42.8.89-.68,5.82-2.51,11.1-5.48,15.84Z"/>
        <path class="cls-2" d="M334.29,86.75c-2.75,5.03-6.55,8.83-11.41,11.41-4.86,2.58-10.46,3.87-16.79,3.87s-11.96-1.31-16.86-3.93c-4.9-2.62-8.72-6.44-11.47-11.47-2.75-5.03-4.12-11.05-4.12-18.06s1.37-13.03,4.12-18.06c2.75-5.03,6.57-8.81,11.47-11.34s10.52-3.8,16.86-3.8,12.19,1.31,17.05,3.93c4.86,2.62,8.62,6.42,11.28,11.41,2.66,4.99,3.99,10.94,3.99,17.87s-1.38,13.16-4.12,18.19ZM319.9,53.41c-3.21-3.59-7.82-5.39-13.82-5.39s-10.63,1.82-13.88,5.45c-3.25,3.63-4.88,8.66-4.88,15.08s1.56,11.75,4.69,15.21c3.12,3.47,7.81,5.2,14.07,5.2s10.82-1.73,13.94-5.2c3.12-3.46,4.69-8.53,4.69-15.21s-1.61-11.55-4.82-15.15Z"/>
        <path class="cls-2" d="M361.73,37.41v16.54c0,.44.36.8.8.8h0c.41,0,.75-.31.79-.72l.19-2.07c.42-4.9,2.49-8.87,6.21-11.91,3.72-3.04,8.41-4.56,14.07-4.56,8.28,0,14.32,2.26,18.12,6.78,3.8,4.52,5.71,10.71,5.71,18.57v39.26c0,.44-.36.8-.8.8h-11.59c-.44,0-.8-.36-.8-.8v-37.23c0-4.82-1.12-8.38-3.36-10.71-2.24-2.32-5.73-3.49-10.46-3.49-6,0-10.65,1.75-13.94,5.26-3.29,3.51-4.94,8.47-4.94,14.89v31.27c0,.44-.36.8-.8.8h-11.59c-.44,0-.8-.36-.8-.8v-62.67c0-.44.36-.8.8-.8h11.59c.44,0,.8.36.8.8Z"/>
        <path class="cls-2" d="M427.17,37.2l16.16,58.53c.1.34.41.58.77.58h.44c.35,0,.67-.23.76-.57l16.91-58.55c.1-.34.41-.57.76-.57h12.52c.54,0,.92.52.76,1.03l-19.53,62.67c-.1.33-.41.56-.76.56h-23.41c-.35,0-.66-.23-.76-.57l-18.79-62.67c-.15-.51.23-1.02.76-1.02h12.65c.36,0,.67.24.77.58Z"/>
        <path class="cls-2" d="M542.29,86.75c-2.75,5.03-6.55,8.83-11.41,11.41-4.86,2.58-10.46,3.87-16.79,3.87s-11.96-1.31-16.86-3.93c-4.9-2.62-8.72-6.44-11.47-11.47-2.75-5.03-4.12-11.05-4.12-18.06s1.37-13.03,4.12-18.06c2.75-5.03,6.57-8.81,11.47-11.34s10.52-3.8,16.86-3.8,12.19,1.31,17.05,3.93c4.86,2.62,8.62,6.42,11.28,11.41,2.66,4.99,3.99,10.94,3.99,17.87s-1.38,13.16-4.12,18.19ZM527.9,53.41c-3.21-3.59-7.82-5.39-13.82-5.39s-10.63,1.82-13.88,5.45c-3.25,3.63-4.88,8.66-4.88,15.08s1.56,11.75,4.69,15.21c3.12,3.47,7.81,5.2,14.07,5.2s10.82-1.73,13.94-5.2c3.12-3.46,4.69-8.53,4.69-15.21s-1.61-11.55-4.82-15.15Z"/>
        <path class="cls-2" d="M557.34,17.23h54.05c.44,0,.8.36.8.8v11.47c0,.44-.36.8-.8.8h-40.36c-.44,0-.8.36-.8.8v19.32c0,.44.36.8.8.8h39.1c.44,0,.8.36.8.8v11.59c0,.44-.36.8-.8.8h-39.1c-.44,0-.8.36-.8.8v34.91c0,.44-.36.8-.8.8h-12.1c-.44,0-.8-.36-.8-.8V18.02c0-.44.36-.8.8-.8Z"/>
        <path class="cls-2" d="M635.89,18.02v82.06c0,.44-.36.8-.8.8h-11.97c-.44,0-.8-.36-.8-.8V18.02c0-.44.36-.8.8-.8h11.97c.44,0,.8.36.8.8Z"/>
        <path class="cls-2" d="M706.68,86.75c-2.75,5.03-6.55,8.83-11.41,11.41-4.86,2.58-10.46,3.87-16.79,3.87s-11.96-1.31-16.86-3.93c-4.9-2.62-8.72-6.44-11.47-11.47-2.75-5.03-4.12-11.05-4.12-18.06s1.37-13.03,4.12-18.06c2.75-5.03,6.57-8.81,11.47-11.34s10.52-3.8,16.86-3.8,12.19,1.31,17.05,3.93c4.86,2.62,8.62,6.42,11.28,11.41,2.66,4.99,3.99,10.94,3.99,17.87s-1.38,13.16-4.12,18.19ZM692.29,53.41c-3.21-3.59-7.82-5.39-13.82-5.39s-10.63,1.82-13.88,5.45c-3.25,3.63-4.88,8.66-4.88,15.08s1.56,11.75,4.69,15.21c3.12,3.47,7.81,5.2,14.07,5.2s10.82-1.73,13.94-5.2c3.12-3.46,4.69-8.53,4.69-15.21s-1.61-11.55-4.82-15.15Z"/>
        <path class="cls-2" d="M729.26,36.62c.39,0,.72.28.78.67l9.65,59.03h1.27l11.66-59.06c.07-.37.4-.64.78-.64h23.15c.38,0,.71.27.78.64l11.41,58.41c.07.37.4.64.78.64h.19c.39,0,.72-.28.78-.67l9.54-58.37c.06-.38.4-.67.78-.67h12.19c.49,0,.87.45.78.93l-11.13,62.67c-.07.38-.4.66-.78.66h-24.29c-.38,0-.7-.27-.78-.64l-11.25-55.41c-.17-.85-1.39-.85-1.56,0l-10.89,55.41c-.07.37-.4.64-.78.64h-24.28c-.39,0-.71-.28-.78-.65l-11.25-62.67c-.09-.49.29-.94.78-.94h12.44Z"/>
      </g>
    </g>
  </g>
</svg>