<?xml version="1.0" encoding="UTF-8"?>
<svg id="Layer_2" data-name="Layer 2" xmlns="http://www.w3.org/2000/svg" viewBox="0 0 591.99 84.93">
  <defs>
    <style>
      .cls-1 {
        fill: #49511d;
      }
    </style>
  </defs>
  <g id="Layer_1" data-name="Layer 1">
    <g>
      <path class="cls-1" d="M112.92,29.73C109.02,13.09,95.57,1.8,78.43.32L51.99.01c-6.26-.08-12.22.13-18.2,2.14-11.58,3.89-20.16,12.68-23.72,24.44-.3.99-.57,2-.82,3,6.98-2.12,14.55-1.58,21.22,1.57l1.89.9c2.35-5.21,6.75-9.29,13.3-10.81l.73.02,2.64-.32,25.1.24c7.62.08,13.9,5.4,16.15,12.61,1.13,3.63,1.56,7.39,1.25,11.12,7.22,2.86,15.31,2.79,22.49-.28l.27-.11c.22-4.94-.22-9.9-1.37-14.79ZM90.61,50.17c-.04.15-.08.29-.12.44-2.23,7.74-8.86,13.15-16.94,13.17l-23.12.06c-1.35,0-2.69-.03-4.03-.22-.21-.03-.54.1-.72,0-5.88-1.46-10.99-4.96-13.36-11.01-2-5.1-2.53-10.65-1.53-15.66l-.32-.15c-7.03-3.33-15.07-3.74-22.36-1.2-1.51,11.26.46,22.54,6,31.46l-11.51,7.22c-4.73,2.97-2.62,10.28,2.96,10.28h37.89c2.63.29,5.3.39,8.02.36l26.34-.2c17.52-.95,31.2-12.62,35.06-29.61.36-1.56.65-3.14.88-4.73-7.42,3.08-15.78,2.99-23.13-.22Z"/>
      <g>
        <path class="cls-1" d="M187.58,62.49c-2.27,3.63-5.45,6.5-9.54,8.62-4.09,2.12-8.96,3.18-14.61,3.18-6.02,0-11.35-1.31-15.99-3.92-4.64-2.61-8.24-6.28-10.79-11.01-2.55-4.73-3.83-10.17-3.83-16.32s1.28-11.69,3.83-16.46c2.55-4.76,6.14-8.45,10.79-11.06,4.64-2.61,9.97-3.92,15.99-3.92,5.65,0,10.54,1.05,14.66,3.13,4.12,2.09,7.3,4.9,9.54,8.43,2.24,3.54,3.55,7.51,3.92,11.94h-9.86c-.55-4.24-2.49-7.62-5.81-10.14-3.32-2.52-7.47-3.78-12.44-3.78-3.93,0-7.48.91-10.65,2.72-3.17,1.81-5.64,4.37-7.42,7.65-1.78,3.29-2.67,7.11-2.67,11.48s.89,8.1,2.67,11.38c1.78,3.29,4.26,5.84,7.42,7.65,3.16,1.81,6.71,2.72,10.65,2.72,5.28,0,9.51-1.35,12.67-4.06,3.16-2.7,5.03-6.18,5.58-10.42h9.96c-.43,4.49-1.78,8.54-4.06,12.17Z"/>
        <path class="cls-1" d="M243.12,63.09c-2,3.66-4.76,6.42-8.3,8.3-3.54,1.88-7.61,2.81-12.22,2.81s-8.7-.95-12.26-2.86c-3.57-1.9-6.35-4.69-8.34-8.34-2-3.66-3-8.04-3-13.14s1-9.48,3-13.14c2-3.66,4.78-6.41,8.34-8.25,3.56-1.84,7.65-2.77,12.26-2.77s8.87.95,12.4,2.86c3.53,1.91,6.27,4.67,8.21,8.3s2.9,7.96,2.9,13-1,9.57-3,13.23ZM232.66,38.85c-2.34-2.61-5.69-3.92-10.05-3.92s-7.73,1.32-10.09,3.96c-2.37,2.64-3.55,6.3-3.55,10.97s1.14,8.54,3.41,11.06c2.27,2.52,5.68,3.78,10.23,3.78s7.87-1.26,10.14-3.78c2.27-2.52,3.41-6.21,3.41-11.06s-1.17-8.4-3.5-11.02Z"/>
        <path class="cls-1" d="M263.08,26.63v13.18h1.11l.19-2.03c.31-3.56,1.81-6.45,4.52-8.66,2.7-2.21,6.11-3.32,10.23-3.32,6.02,0,10.42,1.64,13.18,4.93,2.76,3.29,4.15,7.79,4.15,13.5v29.13h-9.59v-27.65c0-3.5-.81-6.1-2.44-7.79-1.63-1.69-4.16-2.53-7.61-2.53-4.36,0-7.74,1.28-10.14,3.82-2.4,2.55-3.6,6.16-3.6,10.83v23.32h-9.59V26.63h9.59Z"/>
        <path class="cls-1" d="M310.55,26.63l11.98,43.42h1.2l12.54-43.42h10.32l-14.57,46.74h-17.88l-14.01-46.74h10.42Z"/>
        <path class="cls-1" d="M394.4,63.09c-2,3.66-4.76,6.42-8.3,8.3-3.54,1.88-7.61,2.81-12.22,2.81s-8.7-.95-12.26-2.86c-3.57-1.9-6.35-4.69-8.34-8.34-2-3.66-3-8.04-3-13.14s1-9.48,3-13.14c2-3.66,4.78-6.41,8.34-8.25,3.56-1.84,7.65-2.77,12.26-2.77s8.87.95,12.4,2.86c3.53,1.91,6.27,4.67,8.21,8.3s2.9,7.96,2.9,13-1,9.57-3,13.23ZM383.93,38.85c-2.34-2.61-5.69-3.92-10.05-3.92s-7.73,1.32-10.09,3.96c-2.37,2.64-3.55,6.3-3.55,10.97s1.14,8.54,3.41,11.06c2.27,2.52,5.68,3.78,10.23,3.78s7.87-1.26,10.14-3.78c2.27-2.52,3.41-6.21,3.41-11.06s-1.17-8.4-3.5-11.02Z"/>
        <path class="cls-1" d="M404.76,12.53h40.47v9.49h-30.51v15.21h29.59v9.59h-29.59v26.55h-9.96V12.53Z"/>
        <path class="cls-1" d="M462.47,12.53v60.84h-9.86V12.53h9.86Z"/>
        <path class="cls-1" d="M513.96,63.09c-2,3.66-4.76,6.42-8.3,8.3-3.54,1.88-7.61,2.81-12.22,2.81s-8.7-.95-12.26-2.86c-3.57-1.9-6.35-4.69-8.34-8.34-2-3.66-3-8.04-3-13.14s1-9.48,3-13.14c2-3.66,4.78-6.41,8.34-8.25,3.56-1.84,7.65-2.77,12.26-2.77s8.87.95,12.4,2.86c3.53,1.91,6.27,4.67,8.21,8.3,1.94,3.63,2.9,7.96,2.9,13s-1,9.57-3,13.23ZM503.49,38.85c-2.34-2.61-5.69-3.92-10.05-3.92s-7.73,1.32-10.09,3.96c-2.37,2.64-3.55,6.3-3.55,10.97s1.14,8.54,3.41,11.06c2.27,2.52,5.68,3.78,10.23,3.78s7.87-1.26,10.14-3.78c2.27-2.52,3.41-6.21,3.41-11.06s-1.17-8.4-3.5-11.02Z"/>
        <path class="cls-1" d="M530.87,26.63l7.1,43.42h.92l8.57-43.42h17.79l8.48,43.42h1.11l7.1-43.42h10.05l-8.3,46.74h-18.62l-8.85-43.6-8.57,43.6h-18.62l-8.39-46.74h10.23Z"/>
      </g>
    </g>
  </g>
</svg>